<svg width="48" height="48" viewBox="0 0 48 48" fill="none" xmlns="http://www.w3.org/2000/svg">
<g clip-path="url(#clip0_1366_14983)">
<rect width="48" height="48" rx="24" fill="white"/>
<path d="M8.03351 43.4138C7.97125 41.885 7.95043 40.359 8.39099 38.8705C9.07217 36.5691 10.4058 34.8478 12.7285 34.0094C12.8022 33.9827 12.8691 33.937 12.9391 33.9002C12.9891 33.8197 13.0454 33.7431 13.1385 33.7108C13.8707 33.4573 14.575 33.1315 15.3071 32.878C15.383 32.8518 15.4637 32.8449 15.5449 32.8538C15.8115 32.9073 15.8736 33.1112 15.876 33.3369C15.8799 33.7134 15.9447 34.0854 15.9555 34.4592C15.9721 35.0322 16.2078 35.4911 16.5938 35.8917C17.361 36.6878 18.3353 37.1316 19.3528 37.4905C20.5635 37.9177 21.8195 38.0897 23.1002 38.1539C25.2541 38.262 27.3569 38.0616 29.3734 37.2486C29.9984 36.9966 30.5685 36.6466 31.1135 36.2496C31.8205 35.7348 32.1538 35.0477 32.1417 34.1791C32.1356 33.7368 32.1631 33.2966 32.3105 32.8729C32.4428 32.7519 32.5894 32.8016 32.7252 32.8532C33.4754 33.1382 34.2147 33.4512 34.9651 33.7361C35.0533 33.7696 35.1314 33.8229 35.1671 33.9188C35.4316 34.0423 35.6957 34.167 35.9608 34.2893C38.0399 35.2487 39.1206 36.9875 39.6719 39.1117C40.0283 40.4852 40.0216 41.8973 39.981 43.306C39.9791 43.3698 39.9441 43.4326 39.9246 43.4959C39.8364 43.7 39.6772 43.8382 39.5045 43.9705C38.5335 44.7144 37.4906 45.3459 36.415 45.9215C36.1122 46.0835 36.0157 46.2666 36.0197 46.6115C36.0509 49.3317 36.0335 52.0521 36.0338 54.7725C36.0338 54.9473 36.0315 55.1236 35.8974 55.262C27.9476 55.262 19.9979 55.262 12.0481 55.262C11.8732 55.0723 11.9111 54.8352 11.9108 54.6107C11.9082 52.0068 11.8959 49.4027 11.9206 46.799C11.9255 46.2814 11.7474 45.9939 11.2956 45.7633C10.2898 45.2499 9.37257 44.5896 8.45249 43.9375C8.26115 43.8019 8.10664 43.6416 8.03351 43.4138Z" fill="#DFDEDE"/>
<path d="M8.03349 43.4131C9.18608 44.3638 10.4467 45.152 11.7532 45.8686C11.9653 45.9849 12.0612 46.1115 12.0602 46.3648C12.0493 49.3303 12.0503 52.2959 12.0481 55.2614C10.7053 55.2614 9.3624 55.2614 8.01953 55.2614C8.02474 52.316 8.03054 49.3705 8.03484 46.4251C8.03632 45.4211 8.03406 44.4171 8.03349 43.4131Z" fill="#F6BA87"/>
<path d="M35.8988 55.2613C35.8943 52.4711 35.9183 49.6805 35.8639 46.8913C35.8514 46.2492 36.0176 45.9418 36.5937 45.6576C37.7831 45.0709 38.8686 44.2989 39.926 43.4951C39.9265 47.4171 39.9269 51.3392 39.9274 55.2613C38.5845 55.2613 37.2417 55.2613 35.8988 55.2613Z" fill="#F6BA88"/>
<path d="M35.1682 33.9184C34.3577 33.6069 33.5476 33.2945 32.7363 32.9852C32.6125 32.938 32.4831 32.9053 32.3564 32.8659C32.1908 32.9149 32.0365 32.8653 31.8884 32.8017C30.7313 32.3047 29.5445 31.8838 28.3684 31.4359C27.9629 31.2815 27.7977 31.0359 27.777 30.5966C27.7272 29.5415 27.7056 28.4848 27.6251 27.4312C27.6129 27.2705 27.6456 27.1106 27.6354 26.9497C27.6097 26.5018 27.5893 26.0542 27.6637 25.609C27.7329 25.3874 27.9248 25.2748 28.0906 25.1423C29.612 23.926 30.633 22.3951 31.0293 20.4723C31.0804 20.2246 31.22 20.0835 31.4488 19.9791C32.664 19.425 33.2529 17.6803 32.6359 16.4934C32.3493 15.942 32.056 15.8381 31.5036 16.1218C31.2702 16.2417 31.1528 16.1989 31.115 15.9409C31.1053 15.8744 31.0984 15.8076 31.0956 15.7406C31.0501 14.6391 30.6481 13.7569 29.6606 13.1567C29.1051 12.8189 29.073 12.6753 28.5897 11.6263C28.271 11.9191 27.997 12.2491 27.6592 12.5114C26.3627 13.5177 24.8752 14.0474 23.2693 14.2918C21.7958 14.516 20.3138 14.6383 18.8256 14.7086C18.4247 14.7275 18.0257 14.7974 17.6221 14.7817C17.3719 14.772 17.2648 14.9008 17.2254 15.1361C17.1812 15.4007 17.1645 15.6697 17.0965 15.9306C17.0393 16.1503 16.9545 16.2512 16.6999 16.134C16.1383 15.8753 15.7812 16.0307 15.5569 16.5954C15.1745 17.5582 15.4616 18.9045 16.2023 19.625C16.3587 19.7771 16.5391 19.8929 16.7424 19.9681C16.9958 20.0619 17.1241 20.2459 17.172 20.5041C17.4311 21.9012 18.0936 23.0962 18.9992 24.1736C19.3485 24.5892 19.7704 24.918 20.1917 25.2501C20.3403 25.3672 20.4959 25.4749 20.5352 25.6787C20.63 26.146 20.5131 26.6022 20.4704 27.0627C20.4521 27.26 20.4629 27.4603 20.472 27.6589C20.4491 28.7285 20.3629 29.795 20.3047 30.863C20.2925 31.0874 20.1596 31.2332 19.9588 31.3158C18.621 31.8662 17.2673 32.376 15.9151 32.8896C15.7834 32.9396 15.6484 32.8828 15.52 32.9267C14.6542 33.2355 13.8223 33.6342 12.9402 33.8998C12.9422 28.878 12.8926 23.8554 12.9665 18.8347C13.0081 16.0097 13.4408 13.2225 14.5496 10.5865C15.5164 8.28774 16.9317 6.36504 19.1769 5.14864C20.3647 4.50506 21.6461 4.16135 22.9768 4.05054C24.8716 3.89275 26.7325 4.08788 28.4918 4.87135C30.5097 5.76998 31.9518 7.28112 33.005 9.19102C33.9959 10.9881 34.5305 12.9321 34.8469 14.9463C35.1141 16.6476 35.1928 18.3598 35.1892 20.0797C35.1815 23.7051 35.1861 27.3306 35.192 30.956C35.1934 31.8012 35.2221 32.6463 35.2327 33.4916C35.2345 33.635 35.2732 33.789 35.1682 33.9184Z" fill="#300D00"/>
<path d="M27.75 26.9861C27.8071 28.2441 27.8749 29.5017 27.9129 30.7602C27.9212 31.0324 28.0041 31.153 28.2558 31.25C29.6265 31.7783 31.0176 32.2557 32.356 32.8662C32.3254 33.4144 32.2932 33.9625 32.2645 34.5108C32.2235 35.2937 31.8209 35.8656 31.2216 36.3302C29.937 37.3263 28.4495 37.8287 26.8734 38.0959C25.8162 38.2751 24.7453 38.3606 23.6731 38.326C21.6631 38.2611 19.6979 37.9796 17.8929 37.0034C17.502 36.7921 17.1407 36.542 16.7892 36.2719C15.9878 35.6563 15.775 34.7986 15.7641 33.8515C15.7617 33.6503 15.7516 33.4493 15.7476 33.2482C15.7444 33.0881 15.7085 32.9538 15.5195 32.9271C16.9397 32.3694 18.3571 31.8049 19.7821 31.2602C20.0532 31.1565 20.1794 31.0344 20.19 30.7226C20.2243 29.7168 20.2979 28.7124 20.3563 27.7074C20.4247 27.5259 20.3849 27.3373 20.3854 27.1527C20.3858 26.9483 20.4886 26.93 20.6425 26.9824C20.7959 27.0347 20.9233 27.136 21.0602 27.219C22.2641 27.949 23.5421 28.3489 24.9613 28.0536C25.7674 27.8859 26.5074 27.5479 27.2073 27.1155C27.3664 27.0171 27.526 26.8448 27.75 26.9861Z" fill="#F6BB88"/>
<path d="M20.4321 25.6114C19.4059 24.8561 18.5304 23.9651 17.9038 22.8429C17.4883 22.0987 17.1825 21.3168 17.0424 20.475C17.0094 20.2768 16.9591 20.1597 16.7298 20.0903C16.1834 19.9251 15.8462 19.494 15.5972 19.0082C15.2203 18.2728 15.164 17.4914 15.378 16.6989C15.6176 15.8115 16.1935 15.6061 16.9507 16.1405C17.0043 15.7622 17.0794 15.3964 17.101 15.0275C17.1174 14.748 17.2305 14.6801 17.4944 14.6659C19.0211 14.5837 20.5487 14.5067 22.0685 14.3324C23.6472 14.1515 25.1965 13.8652 26.6062 13.0682C27.3513 12.6469 27.9963 12.114 28.5328 11.448C28.5731 11.3979 28.6016 11.3293 28.7061 11.3321C28.7814 12.0889 29.1188 12.7167 29.7851 13.099C30.845 13.7071 31.1676 14.6776 31.2186 15.8054C31.2228 15.8989 31.2285 15.9923 31.2352 16.0856C31.2359 16.0953 31.2489 16.104 31.2576 16.115C31.3576 16.139 31.3919 16.0464 31.4515 16.0005C31.8574 15.6883 32.2669 15.7249 32.5659 16.1484C33.1287 16.9457 33.0937 17.8274 32.7807 18.6876C32.5338 19.3663 32.1287 19.9579 31.3484 20.1385C31.2129 20.1699 31.1841 20.2566 31.1654 20.3662C30.7853 22.5831 29.5478 24.2376 27.7721 25.539C27.6883 25.7226 27.5666 25.8677 27.3975 25.9866C26.3513 26.7217 25.2492 27.3147 23.922 27.264C22.652 27.2155 21.5784 26.6706 20.619 25.8705C20.5355 25.8008 20.4861 25.7038 20.4321 25.6114Z" fill="#F6BA88"/>
<path d="M20.4312 25.6115C21.0111 25.9925 21.5418 26.446 22.1874 26.7295C23.7733 27.4259 25.2662 27.2115 26.6911 26.297C27.0609 26.0596 27.4117 25.7925 27.7712 25.5391C27.6732 26.02 27.813 26.5047 27.748 26.9861C27.1833 27.1975 26.7025 27.5672 26.1497 27.8103C24.3144 28.6175 22.6048 28.3303 20.9546 27.31C20.7997 27.2142 20.6701 27.0649 20.468 27.0465C20.3648 27.2611 20.5053 27.5099 20.3543 27.7074C20.3063 27.006 20.4378 26.3113 20.4312 25.6115Z" fill="#C88A5B"/>
</g>
<defs>
<clipPath id="clip0_1366_14983">
<rect width="48" height="48" rx="24" fill="white"/>
</clipPath>
</defs>
</svg>
