<svg width="50" height="50" viewBox="0 0 50 50" fill="none" xmlns="http://www.w3.org/2000/svg">
<path d="M25.1289 17.1875C16.9219 17.1875 12.6289 19.2219 12.6289 20.3125C12.6289 20.9156 14.1344 22.0852 18.0977 22.832V22.6562C18.0977 20.9328 19.4992 19.5312 21.2227 19.5312H29.0352C30.7586 19.5312 32.1602 20.9328 32.1602 22.6562V22.832C36.1234 22.0852 37.6289 20.9156 37.6289 20.3125C37.6289 19.2219 33.3359 17.1875 25.1289 17.1875Z" fill="white"/>
<path d="M29.0352 21.0938H21.2227C20.3609 21.0938 19.6602 21.7945 19.6602 22.6562V23.7461C19.6602 25.0648 19.2273 26.3172 18.4648 27.3438H31.7922C31.0297 26.3172 30.5969 25.0641 30.5969 23.7461V22.6562C30.5977 21.7945 29.8969 21.0938 29.0352 21.0938Z" fill="white"/>
<path d="M15.9656 33.7078C16.3438 34.5578 16.5352 35.4617 16.5352 36.393C16.5352 40.0625 17.4023 43.7375 19.0438 47.0203C19.2406 47.4125 19.6352 47.6562 20.0734 47.6562C20.7078 47.6562 21.2234 47.1398 21.2234 46.5063C21.2234 43.5844 21.5453 40.6563 22.1789 37.8023L22.4656 36.5117C22.7453 35.2539 23.8406 34.375 25.1297 34.375C26.4188 34.375 27.5141 35.2539 27.7937 36.5117L28.0805 37.8023C28.7148 40.6547 29.0359 43.5828 29.0359 46.5063C29.0359 47.1406 29.5523 47.6562 30.1859 47.6562C30.625 47.6562 31.0188 47.4125 31.2148 47.0203C32.8563 43.7383 33.7234 40.0633 33.7234 36.393C33.7234 35.4617 33.9156 34.5586 34.2938 33.7078L36.4273 28.9062H13.832L15.9656 33.7078Z" fill="white"/>
<path d="M31.9922 2.34375H30.7898C28.8609 2.34375 27.0469 3.09453 25.682 4.45938C25.3766 4.76406 24.8828 4.76406 24.5773 4.45938C23.2133 3.09453 21.3992 2.34375 19.4703 2.34375H18.268C14.2977 2.34375 11.0672 5.57422 11.0664 9.54453C11.0664 9.90938 11.0945 10.2781 11.15 10.6406L12.3219 18.2555C14.6586 16.5219 19.9164 15.625 25.1297 15.625C30.343 15.625 35.6008 16.5219 37.9375 18.2555L39.1094 10.6406C39.1648 10.2781 39.193 9.90859 39.193 9.54531C39.1922 5.57422 35.9625 2.34375 31.9922 2.34375ZM18.0984 5.46875C15.9445 5.46875 14.1922 7.22109 14.1922 9.375H12.6297C12.6297 6.35938 15.0828 3.90625 18.0984 3.90625V5.46875Z" fill="white"/>
</svg>
