<svg width="43" height="43" viewBox="0 0 43 43" fill="none" xmlns="http://www.w3.org/2000/svg">
<path d="M32.6213 0C30.5685 0 28.5618 0.608725 26.855 1.7492C25.1481 2.88967 23.8178 4.51067 23.0323 6.4072C22.2467 8.30374 22.0411 10.3906 22.4416 12.404C22.8421 14.4173 23.8306 16.2667 25.2822 17.7183C26.7337 19.1698 28.5831 20.1583 30.5964 20.5588C32.6098 20.9593 34.6967 20.7537 36.5932 19.9682C38.4898 19.1826 40.1108 17.8523 41.2512 16.1455C42.3917 14.4386 43.0004 12.4319 43.0004 10.3791C42.9975 7.62731 41.903 4.98905 39.9572 3.04323C38.0114 1.0974 35.3731 0.00294364 32.6213 0ZM31.6627 14.3032C31.4965 14.4694 31.2992 14.6012 31.0821 14.6911C30.865 14.7811 30.6322 14.8274 30.3972 14.8274C30.1622 14.8274 29.9295 14.7811 29.7123 14.6911C29.4952 14.6012 29.2979 14.4694 29.1317 14.3032L26.6904 11.8619L28.9145 9.63775L30.3972 11.1205L36.3281 5.18956L38.5522 7.41366L31.6627 14.3032Z" fill="white"/>
<path d="M20.759 10.3787C20.7614 9.63802 20.8328 8.89913 20.9725 8.1717C19.4657 8.24237 17.9894 8.62215 16.6355 9.28745C16.5345 9.33722 16.4234 9.36311 16.3108 9.36311C16.1982 9.36311 16.0871 9.33722 15.9861 9.28745C14.0574 8.34263 11.8958 7.97795 9.76383 8.23768C8.01439 8.4503 6.34068 9.07629 4.88108 10.0639C3.42149 11.0515 2.21794 12.3723 1.36994 13.9172C0.521944 15.4621 0.0538552 17.1866 0.00437745 18.9483C-0.0451003 20.7099 0.325454 22.458 1.0854 24.048C1.94324 25.764 2.62315 27.5633 3.11452 29.4178L5.98064 40.8822C6.12476 41.4586 6.44876 41.974 6.90563 42.3537C7.3625 42.7334 7.92848 42.9576 8.52143 42.9939C9.11439 43.0302 9.70348 42.8766 10.2032 42.5554C10.703 42.2342 11.0874 41.7621 11.3007 41.2077L13.6041 35.2204C13.8146 34.6736 14.1858 34.2033 14.6689 33.8716C15.1519 33.5399 15.7241 33.3624 16.3101 33.3624C16.8961 33.3624 17.4683 33.5399 17.9513 33.8716C18.4344 34.2033 18.8056 34.6736 19.0161 35.2204L21.3195 41.207C21.5327 41.7614 21.9171 42.2335 22.4168 42.5548C22.9165 42.876 23.5055 43.0297 24.0985 42.9935C24.6914 42.9573 25.2574 42.7331 25.7143 42.3535C26.1713 41.9739 26.4953 41.4585 26.6395 40.8822L29.5071 29.4178C29.9985 27.5633 30.6784 25.764 31.5363 24.048C31.8168 23.4599 32.0448 22.8481 32.2176 22.2198C29.1461 22.114 26.2354 20.8208 24.0982 18.6122C21.961 16.4036 20.7639 13.4521 20.759 10.3787ZM11.1213 12.3382C9.15571 12.3403 7.27127 13.1221 5.88141 14.512C4.49155 15.9018 3.70977 17.7863 3.70761 19.7518H2.22488C2.22743 17.3931 3.16555 15.1318 4.83339 13.464C6.50124 11.7961 8.76259 10.858 11.1213 10.8554V12.3382Z" fill="white"/>
</svg>
