<svg width="43" height="43" viewBox="0 0 43 43" fill="none" xmlns="http://www.w3.org/2000/svg">
<path d="M34.1022 11.8619V8.89648H31.1367V11.8619H34.1022ZM31.8781 9.63784H33.3608V11.1205H31.8781V9.63784Z" fill="white"/>
<path d="M26.6904 8.15566V9.63837H29.6559V8.15566C29.6559 7.95904 29.734 7.77047 29.873 7.63144C30.0121 7.49241 30.2006 7.4143 30.3972 7.4143H34.8454C35.042 7.4143 35.2306 7.49241 35.3696 7.63144C35.5087 7.77047 35.5868 7.95904 35.5868 8.15566V9.63837H38.5522V8.15566C38.5522 7.95904 38.6303 7.77047 38.7693 7.63144C38.9084 7.49241 39.0969 7.4143 39.2936 7.4143H42.563C41.9257 5.27243 40.6137 3.39365 38.8223 2.05768C37.0309 0.72171 34.856 0 32.6213 0C30.3866 0 28.2117 0.72171 26.4203 2.05768C24.629 3.39365 23.317 5.27243 22.6797 7.4143H25.9491C26.1457 7.4143 26.3343 7.49241 26.4733 7.63144C26.6123 7.77047 26.6904 7.95904 26.6904 8.15566Z" fill="white"/>
<path d="M25.2076 11.8619V8.89648H22.3608C22.2856 9.38721 22.2459 9.88274 22.2422 10.3792C22.2459 10.8756 22.2856 11.3712 22.3608 11.8619H25.2076ZM22.9835 9.63784H24.4663V11.1205H22.9835V9.63784Z" fill="white"/>
<path d="M38.5522 12.6038V11.1211H35.5868V12.6038C35.5868 12.8004 35.5087 12.989 35.3696 13.128C35.2306 13.2671 35.042 13.3452 34.8454 13.3452H30.3972C30.2006 13.3452 30.0121 13.2671 29.873 13.128C29.734 12.989 29.6559 12.8004 29.6559 12.6038V11.1211H26.6904V12.6038C26.6904 12.8004 26.6123 12.989 26.4733 13.128C26.3343 13.2671 26.1457 13.3452 25.9491 13.3452H22.6797C23.317 15.487 24.629 17.3658 26.4203 18.7018C28.2117 20.0378 30.3866 20.7595 32.6213 20.7595C34.856 20.7595 37.0309 20.0378 38.8223 18.7018C40.6137 17.3658 41.9257 15.487 42.563 13.3452H39.2936C39.0969 13.3452 38.9084 13.2671 38.7693 13.128C38.6303 12.989 38.5522 12.8004 38.5522 12.6038Z" fill="white"/>
<path d="M20.7592 10.3804C20.7614 9.63912 20.8331 8.89972 20.9734 8.17187C19.4661 8.24217 17.9895 8.62249 16.6357 9.28909C16.5347 9.33886 16.4236 9.36474 16.311 9.36474C16.1984 9.36474 16.0873 9.33886 15.9863 9.28909C13.9155 8.27538 11.5805 7.93139 9.30537 8.30487C7.03021 8.67835 4.92773 9.75077 3.2897 11.3733C1.65166 12.9958 0.559315 15.088 0.164242 17.3595C-0.23083 19.631 0.0909667 21.9692 1.08498 24.0495C1.94269 25.7656 2.62283 27.5648 3.11482 29.4191L5.98092 40.8834C6.12513 41.4597 6.4492 41.975 6.90612 42.3547C7.36303 42.7343 7.92902 42.9585 8.52197 42.9947C9.11491 43.0308 9.70396 42.8772 10.2037 42.5559C10.7034 42.2347 11.0877 41.7626 11.3009 41.2081L13.6036 35.2217C13.8141 34.6748 14.1853 34.2046 14.6683 33.8729C15.1514 33.5412 15.7236 33.3637 16.3096 33.3637C16.8955 33.3637 17.4677 33.5412 17.9508 33.8729C18.4338 34.2046 18.805 34.6748 19.0155 35.2217L21.3182 41.2081C21.5314 41.7626 21.9158 42.2347 22.4154 42.5559C22.9151 42.8772 23.5042 43.0308 24.0971 42.9947C24.6901 42.9585 25.2561 42.7343 25.713 42.3547C26.1699 41.975 26.494 41.4597 26.6382 40.8834L29.5072 29.4191C29.9992 27.5648 30.6794 25.7656 31.5371 24.0495C31.818 23.4615 32.046 22.8497 32.2184 22.2213C29.1468 22.1157 26.2359 20.8225 24.0986 18.614C21.9612 16.4054 20.7641 13.4538 20.7592 10.3804ZM11.1215 12.3398C9.15596 12.3419 7.27154 13.1237 5.88169 14.5135C4.49184 15.9034 3.71007 17.7878 3.70791 19.7533H2.22519C2.22774 17.3947 3.16585 15.1334 4.83368 13.4655C6.50151 11.7977 8.76284 10.8596 11.1215 10.8571V12.3398Z" fill="white"/>
<path d="M42.882 8.89648H40.0352V11.8619H42.882C42.9572 11.3712 42.9969 10.8756 43.0006 10.3792C42.9969 9.88274 42.9572 9.38721 42.882 8.89648ZM42.2592 11.1205H40.7765V9.63784H42.2592V11.1205Z" fill="white"/>
</svg>
