<svg width="43" height="43" viewBox="0 0 43 43" fill="none" xmlns="http://www.w3.org/2000/svg">
<path d="M31.8789 2.22363H33.3617V3.70638H31.8789V2.22363Z" fill="white"/>
<path d="M20.7588 10.3788C20.761 9.63758 20.8328 8.89816 20.9731 8.1703C19.4658 8.24104 17.9892 8.62135 16.6353 9.28755C16.5343 9.33732 16.4232 9.3632 16.3106 9.3632C16.198 9.3632 16.0869 9.33732 15.9859 9.28755C14.0572 8.34255 11.8956 7.97786 9.76355 8.23776C7.31233 8.55446 5.03446 9.6723 3.28423 11.4174C1.534 13.1626 0.409524 15.4372 0.0856844 17.8875C-0.177713 19.9944 0.169142 22.1326 1.08505 24.0483C1.94237 25.7645 2.62227 27.5637 3.11419 29.418L5.98033 40.8826C6.12432 41.459 6.44826 41.9745 6.90513 42.3542C7.362 42.734 7.92801 42.9582 8.521 42.9944C9.11398 43.0306 9.70307 42.8769 10.2027 42.5555C10.7024 42.2341 11.0867 41.7619 11.2997 41.2073L13.6031 35.2207C13.8136 34.6739 14.1848 34.2036 14.6679 33.8719C15.1509 33.5402 15.7232 33.3627 16.3091 33.3627C16.8951 33.3627 17.4673 33.5402 17.9504 33.8719C18.4334 34.2036 18.8047 34.6739 19.0151 35.2207L21.3178 41.2073C21.5311 41.7618 21.9154 42.2339 22.4151 42.5551C22.9148 42.8764 23.5039 43.0301 24.0968 42.9939C24.6898 42.9577 25.2558 42.7335 25.7127 42.3539C26.1696 41.9742 26.4937 41.4589 26.6379 40.8826L29.507 29.4173C29.9993 27.5632 30.6795 25.7642 31.5369 24.0483C31.8177 23.4602 32.0457 22.8484 32.2182 22.22C29.1466 22.1144 26.2357 20.8212 24.0983 18.6126C21.9609 16.404 20.7637 13.4523 20.7588 10.3788ZM11.121 12.3383C9.15543 12.3404 7.27097 13.1222 5.8811 14.5121C4.49122 15.902 3.70944 17.7864 3.70729 19.752H2.22454C2.22709 17.3933 3.16522 15.1319 4.83307 13.4641C6.50093 11.7962 8.7623 10.8581 11.121 10.8555V12.3383Z" fill="white"/>
<path d="M33.6467 5.18848H31.5976L30.8555 6.67122H34.3881L33.6467 5.18848Z" fill="white"/>
<path d="M34.891 8.1543H30.3464L29.9023 14.8274H35.3359L34.891 8.1543Z" fill="white"/>
<path d="M29.8056 16.3105L29.707 17.7933H35.5357L35.4371 16.3105H29.8056Z" fill="white"/>
<path d="M32.6214 0C30.5686 0 28.5619 0.60873 26.855 1.74921C25.1482 2.88969 23.8178 4.5107 23.0323 6.40726C22.2467 8.30381 22.0411 10.3907 22.4416 12.4041C22.8421 14.4175 23.8306 16.2669 25.2822 17.7184C26.7338 19.17 28.5831 20.1585 30.5965 20.559C32.6099 20.9595 34.6968 20.7539 36.5934 19.9683C38.4899 19.1828 40.1109 17.8524 41.2514 16.1456C42.3919 14.4387 43.0006 12.432 43.0006 10.3792C42.9977 7.62737 41.9032 4.98909 39.9574 3.04325C38.0115 1.09741 35.3732 0.00294366 32.6214 0ZM36.8695 19.0407C36.8001 19.1148 36.7163 19.1739 36.6233 19.2143C36.5302 19.2547 36.4298 19.2756 36.3283 19.2757H28.9145C28.8129 19.2759 28.7123 19.2552 28.6191 19.2149C28.5258 19.1747 28.4417 19.1156 28.3722 19.0415C28.3027 18.9674 28.2492 18.8798 28.2149 18.7841C28.1807 18.6885 28.1665 18.5868 28.1732 18.4854L28.9145 7.36479C28.9205 7.26668 28.9457 7.1707 28.9887 7.08233L30.3973 4.27179V1.48274C30.3973 1.28612 30.4754 1.09755 30.6144 0.958515C30.7535 0.819481 30.942 0.741372 31.1387 0.741372H34.1041C34.3008 0.741372 34.4893 0.819481 34.6284 0.958515C34.7674 1.09755 34.8455 1.28612 34.8455 1.48274V4.27253L36.2541 7.08233C36.2971 7.1707 36.3223 7.26668 36.3283 7.36479L37.0696 18.4854C37.0761 18.5867 37.0616 18.6883 37.0272 18.7838C36.9928 18.8793 36.9391 18.9667 36.8695 19.0407Z" fill="white"/>
</svg>
