<svg width="43" height="43" viewBox="0 0 43 43" fill="none" xmlns="http://www.w3.org/2000/svg">
<path d="M34.8467 5.18997C34.8467 4.75008 34.7163 4.32006 34.4719 3.9543C34.2275 3.58854 33.8801 3.30347 33.4737 3.13512C33.0673 2.96678 32.6201 2.92274 32.1887 3.00856C31.7572 3.09438 31.3609 3.30621 31.0499 3.61726C30.7388 3.92831 30.527 4.32462 30.4412 4.75606C30.3554 5.1875 30.3994 5.63471 30.5677 6.04112C30.7361 6.44753 31.0212 6.79489 31.3869 7.03928C31.7527 7.28368 32.1827 7.41412 32.6226 7.41412C33.2125 7.41412 33.7782 7.17979 34.1953 6.76268C34.6124 6.34557 34.8467 5.77985 34.8467 5.18997ZM33.364 5.93135H31.8812V4.44859H33.364V5.93135Z" fill="white"/>
<path d="M20.7595 10.3796C20.7618 9.63887 20.8333 8.89997 20.973 8.17252C19.4663 8.24191 17.99 8.62044 16.6359 9.28459C16.5347 9.33388 16.4237 9.35949 16.3112 9.35949C16.1986 9.35949 16.0876 9.33388 15.9864 9.28459C13.9155 8.27117 11.5805 7.92746 9.30534 8.30113C7.03022 8.67481 4.92781 9.74734 3.28982 11.3699C1.65183 12.9925 0.559477 15.0847 0.164325 17.3562C-0.230827 19.6277 0.0908162 21.9658 1.08463 24.0463C1.94255 25.7634 2.62272 27.5637 3.11453 29.4191L5.98072 40.8838C6.12493 41.4601 6.44902 41.9755 6.90595 42.3551C7.36288 42.7348 7.92888 42.9589 8.52185 42.9951C9.11481 43.0313 9.70388 42.8776 10.2036 42.5564C10.7033 42.2351 11.0877 41.763 11.3009 41.2085L13.6036 35.2219C13.8141 34.675 14.1853 34.2047 14.6684 33.873C15.1515 33.5414 15.7237 33.3638 16.3097 33.3638C16.8956 33.3638 17.4679 33.5414 17.9509 33.873C18.434 34.2047 18.8052 34.675 19.0157 35.2219L21.3185 41.2085C21.5317 41.763 21.916 42.2351 22.4158 42.5564C22.9155 42.8776 23.5045 43.0313 24.0975 42.9951C24.6905 42.9589 25.2565 42.7348 25.7134 42.3551C26.1703 41.9755 26.4944 41.4601 26.6386 40.8838L29.5078 29.4191C29.9998 27.5647 30.6799 25.7654 31.5377 24.0492C31.8186 23.4613 32.0466 22.8494 32.219 22.221C29.1473 22.1154 26.2364 20.8222 24.0989 18.6135C21.9615 16.4049 20.7644 13.4531 20.7595 10.3796ZM11.1215 12.3391C9.15586 12.3412 7.27138 13.123 5.88149 14.5129C4.49159 15.9028 3.7098 17.7873 3.70764 19.7529H2.22487C2.22743 17.3942 3.16556 15.1328 4.83345 13.4649C6.50133 11.797 8.76273 10.8589 11.1215 10.8563V12.3391Z" fill="white"/>
<path d="M30.3984 20.5127C31.863 20.8409 33.3821 20.8409 34.8467 20.5127V16.3105H30.3984V20.5127ZM31.8812 17.7933H33.364V19.2761H31.8812V17.7933Z" fill="white"/>
<path d="M31.8789 8.82227V11.8619H33.3617V8.82227C32.8725 8.92213 32.3681 8.92213 31.8789 8.82227Z" fill="white"/>
<path d="M32.6206 1.56957e-06C30.1955 -0.00133192 27.8467 0.847061 25.9822 2.39774C24.1177 3.94842 22.8555 6.10336 22.4149 8.48805C21.9742 10.8727 22.3831 13.3364 23.5704 15.451C24.7576 17.5655 26.6483 19.1973 28.9137 20.0626V15.569C28.9124 15.4543 28.9378 15.3409 28.9878 15.2376L30.3965 12.4285V8.15522H30.4194C29.7915 7.69178 29.3258 7.04196 29.0888 6.29836C28.8517 5.55475 28.8555 4.75531 29.0994 4.01395C29.3434 3.27259 29.8151 2.62714 30.4473 2.16957C31.0796 1.712 31.8401 1.46567 32.6206 1.46567C33.4011 1.46567 34.1616 1.712 34.7939 2.16957C35.4261 2.62714 35.8979 3.27259 36.1418 4.01395C36.3857 4.75531 36.3895 5.55475 36.1524 6.29836C35.9154 7.04196 35.4497 7.69178 34.8218 8.15522H34.8448V12.4285L36.2534 15.2376C36.3034 15.3409 36.3288 15.4543 36.3275 15.569V20.0626C38.5929 19.1973 40.4836 17.5655 41.6708 15.451C42.8581 13.3364 43.267 10.8727 42.8264 8.48805C42.3857 6.10336 41.1235 3.94842 39.259 2.39774C37.3945 0.847061 35.0457 -0.00133192 32.6206 1.56957e-06Z" fill="white"/>
<path d="M33.646 13.3447H31.5969L30.8555 14.8275H34.3874L33.646 13.3447Z" fill="white"/>
</svg>
