<svg width="43" height="43" viewBox="0 0 43 43" fill="none" xmlns="http://www.w3.org/2000/svg">
<path d="M37.9823 5.73509C38.3781 5.73509 38.699 5.41423 38.699 5.01842C38.699 4.62262 38.3781 4.30176 37.9823 4.30176C37.5865 4.30176 37.2656 4.62262 37.2656 5.01842C37.2656 5.41423 37.5865 5.73509 37.9823 5.73509Z" fill="white"/>
<path d="M40.4487 2.0786C40.0942 1.79756 39.6803 1.60097 39.2385 1.50374C38.7967 1.40651 38.3385 1.4112 37.8988 1.51745L32.5682 2.79885C31.8887 2.96225 31.1802 2.96225 30.5006 2.79885L25.1658 1.51602C24.9365 1.46376 24.7022 1.43613 24.467 1.4336C23.6829 1.4317 22.9301 1.74102 22.3738 2.29367C21.8175 2.84632 21.5033 3.59713 21.5 4.38125C21.4947 6.50764 22.1794 8.57835 23.4515 10.2823C23.709 10.6249 23.9879 10.9509 24.2864 11.2584C24.9177 9.78298 25.9815 8.53361 27.3373 7.67505C27.5508 6.72151 28.0827 5.86912 28.8455 5.25831C29.6082 4.64749 30.5562 4.31467 31.5334 4.31467C32.5105 4.31467 33.4585 4.64749 34.2213 5.25831C34.984 5.86912 35.5159 6.72151 35.7294 7.67505C37.0851 8.53385 38.1487 9.78315 38.7803 11.2584C39.0791 10.9506 39.3582 10.6244 39.6159 10.2816C40.8876 8.57774 41.5721 6.50731 41.5667 4.38125C41.5675 3.93772 41.4673 3.49983 41.2736 3.10084C41.0798 2.70185 40.7977 2.35226 40.4487 2.0786ZM25.0834 7.16694C24.6581 7.16694 24.2425 7.04084 23.8889 6.8046C23.5353 6.56835 23.2598 6.23257 23.097 5.83971C22.9343 5.44684 22.8917 5.01455 22.9747 4.59749C23.0576 4.18043 23.2624 3.79734 23.5631 3.49666C23.8638 3.19597 24.2469 2.99121 24.6639 2.90825C25.081 2.82529 25.5133 2.86787 25.9061 3.0306C26.299 3.19332 26.6348 3.46889 26.871 3.82246C27.1073 4.17603 27.2334 4.59171 27.2334 5.01694C27.2334 5.58715 27.0068 6.13401 26.6036 6.53722C26.2004 6.94042 25.6536 7.16694 25.0834 7.16694ZM37.9834 7.16694C37.5581 7.16694 37.1425 7.04084 36.7889 6.8046C36.4353 6.56835 36.1598 6.23257 35.997 5.83971C35.8343 5.44684 35.7917 5.01455 35.8747 4.59749C35.9576 4.18043 36.1624 3.79734 36.4631 3.49666C36.7638 3.19597 37.1469 2.99121 37.5639 2.90825C37.981 2.82529 38.4133 2.86787 38.8061 3.0306C39.199 3.19332 39.5348 3.46889 39.771 3.82246C40.0073 4.17603 40.1334 4.59171 40.1334 5.01694C40.1334 5.58715 39.9068 6.13401 39.5036 6.53722C39.1004 6.94042 38.5536 7.16694 37.9834 7.16694Z" fill="white"/>
<path d="M28.5464 13.8842C30.4903 14.483 32.5694 14.483 34.5133 13.8842C34.681 13.8355 34.8674 13.7624 35.0501 13.6936C34.933 13.0501 34.6426 12.4507 34.2102 11.96C33.4508 12.5681 32.507 12.8995 31.5341 12.8995C30.5613 12.8995 29.6174 12.5681 28.8581 11.96C28.4203 12.4518 28.1274 13.0554 28.0117 13.7036C28.178 13.7674 28.3564 13.8312 28.5464 13.8842Z" fill="white"/>
<path d="M18.5504 1.92739L18.5152 1.93886H18.5066C17.1937 2.37531 15.7747 2.37531 14.4618 1.93886H14.451L14.4195 1.92811C12.807 1.39059 11.076 1.31626 9.42331 1.71356C7.77064 2.11086 6.26258 2.96385 5.07057 4.17557C3.7897 5.43372 2.88157 7.02146 2.4465 8.76338C2.01143 10.5053 2.06637 12.3336 2.60524 14.0462L2.97145 15.2137C3.59725 17.361 4.48317 19.4238 5.60951 21.3562C6.2006 22.2527 6.53609 23.2933 6.57987 24.3662C6.57987 29.2618 7.83906 41.5662 10.8154 41.5662C12.5698 41.5662 13.6175 38.6193 13.6175 33.6829V30.0996C13.6304 28.8554 14.2453 26.5162 16.4842 26.5162C18.7231 26.5162 19.338 28.8554 19.3509 30.0924V33.6829C19.3509 38.6193 20.3986 41.5662 22.153 41.5662C25.1286 41.5662 26.3885 29.2618 26.3885 24.3662C26.4323 23.2932 26.768 22.2525 27.3596 21.3562C27.4098 21.2709 27.4564 21.1828 27.503 21.0975C26.0909 20.2771 24.9742 19.0314 24.3124 17.5384C23.6505 16.0454 23.4775 14.3814 23.8179 12.7842C23.2598 12.2848 22.7513 11.7328 22.2992 11.1358C20.8443 9.18471 20.0612 6.81441 20.0675 4.38054C20.0682 3.30834 20.4654 2.27427 21.1827 1.47732C20.2879 1.49775 19.401 1.64939 18.5504 1.92739ZM11.6575 4.32679C10.6155 4.34329 9.59185 4.60389 8.66883 5.08768C7.7458 5.57147 6.94909 6.26497 6.34266 7.11247C5.70669 7.97325 5.28472 8.97303 5.11163 10.0292C4.93853 11.0853 5.01928 12.1675 5.3472 13.1862C5.37558 13.276 5.38601 13.3704 5.37788 13.4642C5.36976 13.5579 5.34325 13.6492 5.29986 13.7327C5.25647 13.8162 5.19705 13.8904 5.125 13.9509C5.05295 14.0115 4.96968 14.0573 4.87994 14.0856C4.81035 14.1075 4.73788 14.1189 4.66494 14.1193C4.51255 14.1192 4.36417 14.0705 4.24135 13.9803C4.11854 13.89 4.02767 13.763 3.98195 13.6177C3.58476 12.3845 3.48679 11.0746 3.69615 9.79613C3.90551 8.51766 4.41619 7.30738 5.18596 6.26537C5.92593 5.23679 6.89695 4.39619 8.02092 3.81118C9.14489 3.22617 10.3905 2.91306 11.6575 2.89704C11.8475 2.89704 12.0298 2.97255 12.1642 3.10695C12.2986 3.24135 12.3741 3.42363 12.3741 3.61371C12.3741 3.80378 12.2986 3.98607 12.1642 4.12047C12.0298 4.25487 11.8475 4.33037 11.6575 4.33037V4.32679Z" fill="white"/>
<path d="M25.0839 5.73509C25.4797 5.73509 25.8005 5.41423 25.8005 5.01842C25.8005 4.62262 25.4797 4.30176 25.0839 4.30176C24.6881 4.30176 24.3672 4.62262 24.3672 5.01842C24.3672 5.41423 24.6881 5.73509 25.0839 5.73509Z" fill="white"/>
<path d="M27.8971 10.8894C27.6182 10.451 27.4219 9.96517 27.318 9.45605C26.3273 10.3117 25.6198 11.4481 25.2892 12.7147C25.151 13.2433 25.0814 13.7874 25.082 14.3337C25.0804 15.4148 25.3506 16.4791 25.8677 17.4285C26.3848 18.378 27.1323 19.1822 28.0415 19.7673C28.9506 20.3524 29.9923 20.6996 31.0707 20.7769C32.1491 20.8543 33.2296 20.6593 34.2129 20.2099C35.1963 19.7605 36.0509 19.0712 36.6982 18.2052C37.3455 17.3393 37.7648 16.3245 37.9174 15.2541C38.0701 14.1838 37.9512 13.0923 37.5718 12.0799C37.1924 11.0675 36.5646 10.1667 35.746 9.46035C35.6419 9.96941 35.4457 10.4552 35.167 10.8937C36.0004 11.7668 36.4886 12.9128 36.5408 14.1187C36.5479 14.1901 36.5505 14.2619 36.5487 14.3337C36.5487 15.6642 36.0202 16.9402 35.0794 17.881C34.1386 18.8218 32.8625 19.3504 31.532 19.3504C30.2015 19.3504 28.9255 18.8218 27.9847 17.881C27.0439 16.9402 26.5154 15.6642 26.5154 14.3337C26.514 14.2425 26.5184 14.1513 26.5283 14.0606C26.5858 12.8728 27.0722 11.746 27.8971 10.8894Z" fill="white"/>
<path d="M31.5346 11.4687C33.1179 11.4687 34.4013 10.1852 34.4013 8.60202C34.4013 7.0188 33.1179 5.73535 31.5346 5.73535C29.9514 5.73535 28.668 7.0188 28.668 8.60202C28.668 10.1852 29.9514 11.4687 31.5346 11.4687Z" fill="white"/>
<path d="M28.1333 15.2576C28.1147 15.2519 28.0968 15.2433 28.0781 15.2383C28.2745 16.0052 28.7205 16.6849 29.3459 17.1704C29.9713 17.6558 30.7404 17.9192 31.5321 17.9192C32.3238 17.9192 33.0929 17.6558 33.7183 17.1704C34.3437 16.6849 34.7897 16.0052 34.9861 15.2383C34.966 15.2447 34.9431 15.2533 34.923 15.2591C33.8244 15.5961 32.6816 15.7671 31.5325 15.7665C30.3804 15.7666 29.2348 15.5951 28.1333 15.2576Z" fill="white"/>
</svg>
