<svg width="43" height="44" viewBox="0 0 43 44" fill="none" xmlns="http://www.w3.org/2000/svg">
<path d="M34.1198 10.6914L33.4152 11.3961C32.9316 11.8771 32.5482 12.4492 32.2872 13.0793C32.0262 13.7094 31.8927 14.385 31.8945 15.0671V17.802H33.3781V15.3222C33.3767 14.8351 33.472 14.3525 33.6584 13.9024C33.8448 13.4523 34.1186 13.0436 34.464 12.7001L35.2963 11.8678L34.1198 10.6914Z" fill="white"/>
<path d="M33.6836 8.16211L35.6017 6.24399L37.149 7.79129L35.2309 9.7094L33.6836 8.16211Z" fill="white"/>
<path d="M20.7698 10.3849C20.772 9.64329 20.8438 8.90348 20.9842 8.17523C19.4761 8.24593 17.9987 8.62644 16.6441 9.29307C16.5431 9.34287 16.4319 9.36876 16.3192 9.36876C16.2066 9.36876 16.0954 9.34287 15.9943 9.29307C14.0646 8.34749 11.9018 7.98261 9.76871 8.24273C7.31619 8.55959 5.03712 9.67803 3.28597 11.4241C1.53481 13.1701 0.40974 15.4459 0.0857297 17.8975C-0.177807 20.0056 0.169232 22.1449 1.08563 24.0616C1.9434 25.7787 2.62366 27.5789 3.11583 29.4342L5.98349 40.9048C6.12755 41.4815 6.45167 41.9972 6.90878 42.3772C7.36589 42.7572 7.9322 42.9815 8.5255 43.0177C9.1188 43.054 9.7082 42.9001 10.2081 42.5786C10.7081 42.2571 11.0925 41.7846 11.3056 41.2297L13.6103 35.24C13.8209 34.6928 14.1923 34.2223 14.6756 33.8904C15.1589 33.5586 15.7315 33.3809 16.3177 33.3809C16.904 33.3809 17.4765 33.5586 17.9599 33.8904C18.4432 34.2223 18.8146 34.6928 19.0252 35.24L21.3291 41.2297C21.5424 41.7845 21.927 42.2568 22.427 42.5782C22.9269 42.8997 23.5163 43.0534 24.1096 43.0172C24.7028 42.981 25.2691 42.7567 25.7263 42.3769C26.1835 41.997 26.5077 41.4814 26.652 40.9048L29.5226 29.4334C30.0152 27.5784 30.6957 25.7785 31.5536 24.0616C31.8345 23.4732 32.0627 22.8611 32.2353 22.2324C29.162 22.1267 26.2495 20.8328 24.111 18.6231C21.9725 16.4133 20.7747 13.4601 20.7698 10.3849ZM11.1269 12.3454C9.16026 12.3476 7.27482 13.1298 5.88421 14.5204C4.4936 15.911 3.71141 17.7964 3.70925 19.7631H2.22572C2.22827 17.4031 3.16689 15.1405 4.83563 13.4718C6.50437 11.8031 8.76693 10.8645 11.1269 10.8619V12.3454Z" fill="white"/>
<path d="M31.8945 20.7318C32.1408 20.7496 32.3856 20.7697 32.6363 20.7697C32.887 20.7697 33.1318 20.7496 33.3781 20.7318V19.2861H31.8945V20.7318Z" fill="white"/>
<path d="M36.2773 10.7588L38.1955 8.84067L39.0011 9.64631L37.083 11.5644L36.2773 10.7588Z" fill="white"/>
<path d="M32.6393 0C30.0829 0.00559738 27.6183 0.95397 25.7176 2.66353C23.8168 4.37308 22.6135 6.72368 22.3379 9.26523C22.0623 11.8068 22.7339 14.3607 24.224 16.4379C25.7142 18.5151 27.9182 19.9697 30.414 20.5231V15.0674C30.4116 14.1905 30.5832 13.3218 30.9189 12.5116C31.2545 11.7015 31.7475 10.9659 32.3693 10.3476L33.074 9.64293L32.1149 8.68383C31.9758 8.54473 31.8977 8.35609 31.8977 8.1594C31.8977 7.96271 31.9758 7.77407 32.1149 7.63497L32.3322 7.41764L31.3731 6.45854C31.2341 6.31943 31.156 6.1308 31.156 5.93411C31.156 5.73742 31.2341 5.54878 31.3731 5.40968L31.5905 5.19235L30.6314 4.23324L31.6802 3.18439L32.6393 4.14349L32.8567 3.92615C32.9958 3.7871 33.1844 3.70898 33.3811 3.70898C33.5778 3.70898 33.7664 3.7871 33.9055 3.92615L34.8646 4.88526L35.0819 4.66792C35.2211 4.52886 35.4097 4.45074 35.6064 4.45074C35.8031 4.45074 35.9917 4.52886 36.1308 4.66792L40.5814 9.1185C40.7204 9.2576 40.7986 9.44624 40.7986 9.64293C40.7986 9.83962 40.7204 10.0283 40.5814 10.1674L37.6143 13.1344C37.4752 13.2735 37.2866 13.3516 37.0899 13.3516C36.8932 13.3516 36.7046 13.2735 36.5655 13.1344L36.3481 12.9171L35.5159 13.7493C35.1002 14.1676 34.8662 14.7329 34.8646 15.3226V20.5231C37.3604 19.9697 39.5644 18.5151 41.0546 16.4379C42.5448 14.3607 43.2163 11.8068 42.9408 9.26523C42.6652 6.72368 41.4618 4.37308 39.5611 2.66353C37.6603 0.95397 35.1958 0.00559738 32.6393 0ZM29.6723 5.19235H27.447V3.70882H29.6723V5.19235ZM29.8896 3.49148L28.4061 2.00795L29.4549 0.9591L30.9385 2.44263L29.8896 3.49148Z" fill="white"/>
</svg>
