<svg width="43" height="43" viewBox="0 0 43 43" fill="none" xmlns="http://www.w3.org/2000/svg">
<path d="M31.9812 20.7258C32.194 20.7392 32.4053 20.7584 32.6218 20.7584C33.4043 20.7562 34.184 20.6649 34.9459 20.4864V17.793H31.9805L31.9812 20.7258Z" fill="white"/>
<path d="M30.2727 6.64221L29.6641 11.7065L30.4988 16.925V11.1208C30.4988 11.0521 30.5083 10.9838 30.527 10.9177L31.3751 7.95221L31.2951 7.73721C31.2637 7.65277 31.2479 7.56335 31.2484 7.47328L31.2632 5.27734L30.2727 6.64221Z" fill="white"/>
<path d="M20.7591 10.3796C20.7614 9.63885 20.8329 8.89996 20.9726 8.17252C19.466 8.24201 17.9898 8.62053 16.6356 9.28457C16.5344 9.33386 16.4234 9.35947 16.3109 9.35947C16.1983 9.35947 16.0873 9.33386 15.9861 9.28457C13.9152 8.27117 11.5803 7.92746 9.30518 8.30113C7.0301 8.6748 4.92773 9.74732 3.28976 11.3699C1.6518 12.9924 0.559467 15.0846 0.164322 17.356C-0.230823 19.6275 0.0908146 21.9656 1.08461 24.046C1.94252 25.7631 2.62268 27.5633 3.11448 29.4187L5.98062 40.8833C6.12483 41.4595 6.4489 41.9749 6.90583 42.3545C7.36275 42.7342 7.92875 42.9583 8.5217 42.9945C9.11465 43.0307 9.70371 42.877 10.2034 42.5558C10.7031 42.2346 11.0875 41.7624 11.3007 41.208L13.6034 35.2214C13.8139 34.6745 14.1851 34.2043 14.6681 33.8726C15.1512 33.5409 15.7234 33.3634 16.3094 33.3634C16.8954 33.3634 17.4676 33.5409 17.9506 33.8726C18.4337 34.2043 18.8049 34.6745 19.0154 35.2214L21.3181 41.2072C21.5313 41.7617 21.9157 42.2338 22.4154 42.5551C22.9151 42.8763 23.5041 43.03 24.0971 42.9938C24.69 42.9576 25.256 42.7334 25.7129 42.3538C26.1699 41.9741 26.4939 41.4588 26.6382 40.8825L29.5073 29.4187C29.9993 27.5643 30.6794 25.7651 31.5371 24.049C31.8181 23.461 32.0461 22.8492 32.2185 22.2207C29.1468 22.1151 26.2359 20.8219 24.0985 18.6133C21.9611 16.4048 20.764 13.4531 20.7591 10.3796ZM11.1213 12.339C9.1557 12.3412 7.27125 13.123 5.88138 14.5128C4.49151 15.9027 3.70973 17.7871 3.70758 19.7527H2.22484C2.22739 17.394 3.16551 15.1327 4.83336 13.4648C6.50121 11.797 8.76258 10.8588 11.1213 10.8563V12.339Z" fill="white"/>
<path d="M33.3829 6.31881L32.2227 10.3793H34.7841L34.2199 7.56208C34.2021 7.47414 34.2006 7.38368 34.2155 7.29519L34.5765 5.12891L33.3829 6.31881Z" fill="white"/>
<path d="M31.9805 14.8271H34.9459V16.3099H31.9805V14.8271Z" fill="white"/>
<path d="M32.6213 1.19272e-06C30.1384 -0.000901092 27.7375 0.88825 25.8542 2.50612C23.9708 4.12399 22.7299 6.36339 22.3564 8.81797C21.9829 11.2726 22.5017 13.7797 23.8187 15.8845C25.1356 17.9893 27.1634 19.5523 29.5342 20.2898L28.1827 11.8382C28.1716 11.77 28.1701 11.7007 28.1782 11.6321L28.8225 6.27422C28.838 6.15019 28.8847 6.03211 28.9581 5.93096L31.4173 2.534C31.5093 2.40639 31.6396 2.31137 31.7892 2.26269C31.9389 2.21402 32.1001 2.21421 32.2496 2.26325C32.3991 2.31229 32.5292 2.40763 32.6209 2.53548C32.7126 2.66332 32.7613 2.81703 32.7599 2.97438L32.7473 4.85746L35.1634 2.44133C35.2745 2.33048 35.4179 2.25772 35.5729 2.23356C35.728 2.20939 35.8867 2.23505 36.0263 2.30684C36.1658 2.37863 36.279 2.49286 36.3495 2.63307C36.42 2.77328 36.4442 2.93224 36.4186 3.08707L35.6994 7.4011L36.4141 10.9752C36.424 11.024 36.429 11.0737 36.4289 11.1235V20.0259C38.6768 19.1403 40.545 17.4979 41.7113 15.3821C42.8777 13.2662 43.2689 10.8097 42.8176 8.43622C42.3664 6.06275 41.1008 3.92122 39.2393 2.3811C37.3779 0.840971 35.0373 -0.00115683 32.6213 1.19272e-06Z" fill="white"/>
<path d="M31.9805 11.8623H34.9459V13.345H31.9805V11.8623Z" fill="white"/>
</svg>
