<svg width="43" height="43" viewBox="0 0 43 43" fill="none" xmlns="http://www.w3.org/2000/svg">
<path d="M36.9371 4.46319C35.3225 1.81378 32.7993 0.167969 30.3521 0.167969C27.2941 0.167969 25.8749 0.957393 24.6362 1.66472C24.6341 1.66605 24.6323 1.66762 24.6302 1.66894C20.7424 4.13475 17.6236 4.30063 17.4927 4.3065C17.4825 4.30695 17.4723 4.30715 17.4622 4.30715C17.1049 4.30715 16.8076 4.0258 16.7915 3.66529C16.7749 3.29512 17.0612 2.98149 17.4312 2.96414C17.4577 2.9627 18.4261 2.9025 19.9191 2.42319C19.3815 2.24697 18.9234 1.98622 18.4064 1.69092C17.1568 0.977057 15.7404 0.167969 12.6447 0.167969C10.1975 0.167969 7.67424 1.81378 6.05959 4.46319C4.79171 6.54344 4.13238 9.10287 4.1528 11.8649C4.17626 15.0508 5.08024 18.3961 6.83965 21.8079C6.95488 22.0315 7.18535 22.1719 7.43681 22.1719H35.5599C35.8114 22.1719 36.0419 22.0315 36.1571 21.8079C37.9165 18.3961 38.8205 15.0508 38.8439 11.8649C38.8643 9.10287 38.205 6.54344 36.9371 4.46319Z" fill="white"/>
<path d="M29.3938 24.8442C29.3463 24.4763 29.0107 24.2165 28.6414 24.2639L27.0091 24.4748L27.045 23.5156H15.9482L16.0372 25.8921L14.1797 26.132C13.8116 26.1795 13.5519 26.5164 13.5994 26.8844C13.6431 27.2232 13.9321 27.4703 14.2649 27.4703C14.2935 27.4703 14.3226 27.4685 14.3518 27.4647L16.0877 27.2405L26.9581 25.8363L28.8135 25.5966C29.1816 25.5491 29.4413 25.2122 29.3938 24.8442Z" fill="white"/>
<path d="M28.2349 27.7363L26.8803 27.9113L26.907 27.1982L16.138 28.5893L16.1645 29.2955L14.5859 29.4994C14.2179 29.5469 13.9581 29.8838 14.0056 30.2518C14.0494 30.5906 14.3383 30.8377 14.6712 30.8377C14.6998 30.8377 14.7288 30.8358 14.758 30.832L16.2149 30.6439L26.8293 29.2728L28.407 29.069C28.775 29.0215 29.0348 28.6846 28.9873 28.3166C28.9397 27.9486 28.6035 27.689 28.2349 27.7363Z" fill="white"/>
<path d="M27.662 31.4603L26.7416 31.5792L26.777 30.6338L16.2641 31.9917L16.2992 32.9281L15.1562 33.0758C14.7881 33.1233 14.5284 33.4602 14.5759 33.8282C14.6196 34.167 14.9086 34.414 15.2414 34.414C15.27 34.414 15.2991 34.4122 15.3283 34.4084L17.7404 34.0969L26.6906 32.9407L27.8341 32.793C28.2021 32.7455 28.4619 32.4086 28.4143 32.0406C28.3668 31.6727 28.0306 31.4128 27.662 31.4603Z" fill="white"/>
<path d="M27.2062 35.0502L26.6113 35.127L26.6422 34.3018L16.4027 35.6244L16.4333 36.4418L15.6171 36.5472C15.2491 36.5947 14.9893 36.9316 15.0369 37.2996C15.0806 37.6384 15.3695 37.8855 15.7023 37.8855C15.731 37.8855 15.76 37.8836 15.7892 37.8799L16.4838 37.7901L26.5603 36.4885L27.3782 36.3829C27.7462 36.3353 28.0061 35.9985 27.9585 35.6305C27.911 35.2625 27.5753 35.0029 27.2062 35.0502Z" fill="white"/>
<path d="M21.4958 42.8543C24.2011 42.8543 26.3994 40.7367 26.5006 38.0334L26.5075 37.8506L16.6523 39.1236C17.2155 41.2847 19.1672 42.8543 21.4958 42.8543Z" fill="white"/>
</svg>
