<svg width="50" height="50" viewBox="0 0 50 50" fill="none" xmlns="http://www.w3.org/2000/svg">
<path d="M42.0981 21.1942C41.7568 18.6121 40.5719 16.2152 38.7275 14.3762C36.8831 12.5372 34.4827 11.3592 31.8997 11.0255C29.653 10.7513 27.375 11.1357 25.3426 12.1317C25.2362 12.1842 25.1191 12.2115 25.0005 12.2115C24.8818 12.2115 24.7647 12.1842 24.6583 12.1317C22.6257 11.1363 20.3479 10.752 18.1012 11.0255C15.5182 11.3592 13.1178 12.5372 11.2734 14.3762C9.42902 16.2152 8.24405 18.6121 7.90279 21.1942C7.62523 23.4145 7.99074 25.6678 8.95592 27.6864C9.85935 29.495 10.5758 31.391 11.0942 33.345L14.1145 45.4263C14.2662 46.0336 14.6076 46.5769 15.0891 46.977C15.5705 47.3772 16.167 47.6135 16.7918 47.6517C17.4167 47.6898 18.0375 47.5278 18.564 47.1892C19.0906 46.8505 19.4955 46.3529 19.72 45.7685L22.1473 39.4599C22.3691 38.8836 22.7603 38.388 23.2694 38.0385C23.7784 37.689 24.3814 37.5019 24.9989 37.5019C25.6164 37.5019 26.2194 37.689 26.7284 38.0385C27.2375 38.388 27.6287 38.8836 27.8504 39.4599L30.277 45.7685C30.5017 46.3527 30.9067 46.8503 31.4333 47.1888C31.9599 47.5273 32.5806 47.6893 33.2055 47.6511C33.8303 47.613 34.4268 47.3767 34.9083 46.9767C35.3898 46.5766 35.7313 46.0336 35.8833 45.4263L38.9067 33.3442C39.4255 31.3905 40.1422 29.4947 41.0458 27.6864C42.011 25.6675 42.3765 23.414 42.0989 21.1935L42.0981 21.1942ZM19.5317 14.8442C17.4604 14.8465 15.4746 15.6703 14.0099 17.135C12.5453 18.5996 11.7215 20.5854 11.7192 22.6567H10.1567C10.1594 20.1712 11.148 17.7881 12.9055 16.0306C14.6631 14.273 17.0461 13.2844 19.5317 13.2817V14.8442Z" fill="white"/>
<path d="M47.4086 4.95391C46.7786 4.63918 46.2488 4.15515 45.8785 3.55611C45.5083 2.95707 45.3123 2.26672 45.3125 1.5625C45.3127 2.26672 45.1167 2.95707 44.7465 3.55611C44.3762 4.15515 43.8464 4.63918 43.2164 4.95391L42.1875 5.46875L43.2164 5.98359C43.8463 6.29847 44.376 6.78253 44.7462 7.38154C45.1164 7.98054 45.3125 8.67082 45.3125 9.375C45.3126 8.67095 45.5088 7.98084 45.879 7.38199C46.2492 6.78313 46.7788 6.29919 47.4086 5.98438L48.4375 5.46875L47.4086 4.95391Z" fill="white"/>
<path d="M4.6875 6.25C4.68771 6.95422 4.49169 7.64457 4.12145 8.24361C3.75121 8.84265 3.22138 9.32668 2.59141 9.64141L1.5625 10.1562L2.59141 10.6711C3.22127 10.986 3.751 11.47 4.12122 12.069C4.49144 12.668 4.68753 13.3583 4.6875 14.0625C4.68762 13.3585 4.88377 12.6683 5.25399 12.0695C5.6242 11.4706 6.15385 10.9867 6.78359 10.6719L7.8125 10.1562L6.78359 9.64141C6.15362 9.32668 5.62379 8.84265 5.25355 8.24361C4.88331 7.64457 4.68729 6.95422 4.6875 6.25Z" fill="white"/>
</svg>
